<svg width="3869" height="1728" viewBox="0 0 3869 1728" fill="none" xmlns="http://www.w3.org/2000/svg">
<path d="M1405 216H324.999C265.352 216 216.999 264.353 216.999 324V457.56C357.452 503.29 503.088 572.567 659.46 674.834C738.188 591.797 849.541 540 972.999 540C1211.59 540 1405 733.413 1405 972C1405 1210.59 1211.59 1404 972.999 1404C734.412 1404 540.999 1210.59 540.999 972C540.999 895.837 560.734 824.293 595.332 762.16C505.01 703.353 416.787 654.888 330.067 616.346C292.169 599.502 254.62 584.453 216.999 571.086V1404C216.999 1463.65 265.352 1512 324.999 1512H1405C1464.65 1512 1513 1463.65 1513 1404V324C1513 264.353 1464.65 216 1405 216Z" fill="black"/>
<path d="M958.496 1044H756.999V1152H1153V756H1045V976.434C908.314 853.168 780.665 754.103 659.46 674.834C634.612 701.043 613.032 730.371 595.332 762.16C712.424 838.396 833.043 932.018 958.496 1044Z" fill="black"/>
<path d="M1880.31 1041.33C1851.56 1041.33 1827.66 1034.06 1808.6 1019.53C1789.54 1004.99 1778.4 985.29 1775.17 960.415H1816.84C1819.42 973.013 1826.12 983.914 1836.94 993.119C1847.76 1002.32 1862.38 1006.93 1880.79 1006.93C1897.91 1006.93 1910.51 1003.29 1918.58 996.026C1926.65 988.76 1930.69 980.122 1930.69 970.106C1930.69 955.57 1925.44 945.879 1914.95 941.034C1904.45 936.188 1889.67 931.829 1870.62 927.953C1857.7 925.372 1844.77 921.656 1831.86 916.811C1818.94 911.965 1808.12 905.105 1799.4 896.219C1790.68 887.34 1786.31 875.627 1786.31 861.091C1786.31 840.1 1794.14 822.898 1809.81 809.492C1825.47 796.094 1846.71 789.387 1873.52 789.387C1899.04 789.387 1919.95 795.768 1936.27 808.523C1952.57 821.286 1962.02 839.457 1964.61 863.029H1924.4C1922.78 850.76 1917.53 841.15 1908.65 834.202C1899.76 827.261 1887.89 823.787 1873.04 823.787C1858.51 823.787 1847.28 826.859 1839.37 832.991C1831.45 839.131 1827.5 847.21 1827.5 857.214C1827.5 866.905 1832.58 874.501 1842.76 879.986C1852.93 885.482 1866.74 890.163 1884.19 894.039C1899.04 897.272 1913.17 901.229 1926.58 905.91C1939.98 910.594 1950.96 917.539 1959.52 926.743C1968.08 935.947 1972.36 949.273 1972.36 966.712C1972.68 988.358 1964.53 1006.2 1947.9 1020.25C1931.26 1034.3 1908.73 1041.33 1880.31 1041.33Z" fill="black"/>
<path d="M2114.81 1035.51C2092.84 1035.51 2075.57 1030.19 2062.97 1019.53C2050.38 1008.87 2044.08 989.652 2044.08 961.867V829.598H2002.4V795.201H2044.08L2049.4 737.543H2084.77V795.201H2155.51V829.598H2084.77V961.867C2084.77 977.055 2087.84 987.304 2093.98 992.636C2100.11 997.964 2110.93 1000.63 2126.44 1000.63H2151.63V1035.51H2114.81Z" fill="black"/>
<path d="M2287.29 1041.33C2267.26 1041.33 2250.63 1037.93 2237.39 1031.15C2224.14 1024.37 2214.3 1015.33 2207.84 1004.02C2201.37 992.717 2198.15 980.448 2198.15 967.199C2198.15 942.654 2207.51 923.759 2226.25 910.51C2244.98 897.272 2270.49 890.646 2302.8 890.646H2367.72V887.738C2367.72 866.748 2362.23 850.841 2351.25 840.016C2340.27 829.199 2325.57 823.787 2307.16 823.787C2291.33 823.787 2277.68 827.744 2266.22 835.657C2254.75 843.575 2247.57 855.119 2244.66 870.299H2202.99C2204.6 852.856 2210.5 838.162 2220.68 826.208C2230.85 814.261 2243.52 805.133 2258.71 798.832C2273.89 792.535 2290.04 789.387 2307.16 789.387C2340.75 789.387 2366.03 798.35 2382.98 816.276C2399.94 834.202 2408.42 858.026 2408.42 887.738V1035.51H2372.08L2369.66 992.391C2362.88 1005.96 2352.95 1017.51 2339.86 1027.03C2326.79 1036.56 2309.26 1041.33 2287.29 1041.33ZM2293.59 1006.93C2309.1 1006.93 2322.42 1002.89 2333.56 994.816C2344.71 986.745 2353.19 976.246 2359 963.323C2364.82 950.407 2367.72 936.84 2367.72 922.625V922.139H2306.19C2282.28 922.139 2265.41 926.256 2255.56 934.495C2245.7 942.731 2240.78 952.988 2240.78 965.261C2240.78 977.859 2245.39 987.955 2254.59 995.543C2263.8 1003.14 2276.8 1006.93 2293.59 1006.93Z" fill="black"/>
<path d="M2557.65 1035.51C2535.68 1035.51 2518.4 1030.19 2505.8 1019.53C2493.2 1008.87 2486.91 989.652 2486.91 961.867V829.598H2445.24V795.201H2486.91L2492.24 737.543H2527.6V795.201H2598.34V829.598H2527.6V961.867C2527.6 977.055 2530.67 987.304 2536.81 992.636C2542.95 997.964 2553.77 1000.63 2569.27 1000.63H2594.47V1035.51H2557.65Z" fill="black"/>
<path d="M2751.44 1041.33C2728.5 1041.33 2708.15 1036.07 2690.4 1025.58C2672.63 1015.09 2658.66 1000.47 2648.49 981.735C2638.31 963.005 2633.23 940.877 2633.23 915.355C2633.23 890.163 2638.23 868.116 2648.25 849.221C2658.25 830.326 2672.23 815.632 2690.15 805.133C2708.08 794.638 2728.83 789.387 2752.41 789.387C2775.67 789.387 2795.78 794.638 2812.73 805.133C2829.69 815.632 2842.69 829.441 2851.74 846.559C2860.78 863.68 2865.31 882.093 2865.31 901.792C2865.31 905.347 2865.22 908.897 2865.06 912.448C2864.89 916.007 2864.82 920.044 2864.82 924.563H2673.44C2674.41 942.972 2678.68 958.236 2686.28 970.348C2693.86 982.459 2703.4 991.591 2714.86 997.723C2726.33 1003.86 2738.52 1006.93 2751.44 1006.93C2768.24 1006.93 2782.29 1003.05 2793.59 995.298C2804.9 987.546 2813.14 977.055 2818.31 963.805H2858.52C2852.05 986.094 2839.7 1004.59 2821.46 1019.28C2803.2 1033.98 2779.86 1041.33 2751.44 1041.33ZM2751.44 823.787C2732.06 823.787 2714.87 829.682 2699.84 841.468C2684.83 853.266 2676.18 870.464 2673.93 893.07H2825.09C2824.12 871.433 2816.68 854.476 2802.8 842.196C2788.91 829.923 2771.79 823.787 2751.44 823.787Z" fill="black"/>
<path d="M1788.25 1506.19V1265.87H1825.07L1827.98 1300.76C1835.73 1287.84 1846.06 1277.82 1858.99 1270.72C1871.9 1263.62 1886.44 1260.06 1902.59 1260.06C1921.65 1260.06 1938.04 1263.94 1951.77 1271.69C1965.49 1279.44 1976.07 1291.23 1983.5 1307.05C1991.9 1292.52 2003.44 1281.06 2018.15 1272.65C2032.84 1264.26 2048.75 1260.06 2065.87 1260.06C2094.61 1260.06 2117.54 1268.7 2134.67 1285.98C2151.79 1303.26 2160.35 1329.83 2160.35 1365.68V1506.19H2120.13V1370.04C2120.13 1345.17 2115.12 1326.44 2105.12 1313.84C2095.1 1301.24 2080.72 1294.94 2062 1294.94C2042.61 1294.94 2026.54 1302.45 2013.79 1317.47C2001.02 1332.49 1994.65 1353.89 1994.65 1381.67V1506.19H1953.95V1370.04C1953.95 1345.17 1948.94 1326.44 1938.93 1313.84C1928.91 1301.24 1914.54 1294.94 1895.81 1294.94C1876.74 1294.94 1860.84 1302.45 1848.09 1317.47C1835.32 1332.49 1828.95 1353.89 1828.95 1381.67V1506.19H1788.25Z" fill="black"/>
<path d="M2301.82 1512C2281.79 1512 2265.16 1508.61 2251.92 1501.83C2238.67 1495.04 2228.82 1486 2222.36 1474.69C2215.9 1463.39 2212.67 1451.12 2212.67 1437.87C2212.67 1413.33 2222.04 1394.43 2240.77 1381.18C2259.5 1367.94 2285.02 1361.32 2317.32 1361.32H2382.25V1358.41C2382.25 1337.42 2376.75 1321.51 2365.77 1310.69C2354.79 1299.87 2340.09 1294.46 2321.69 1294.46C2305.85 1294.46 2292.21 1298.42 2280.74 1306.33C2269.27 1314.25 2262.09 1325.79 2259.18 1340.97H2217.52C2219.13 1323.53 2225.02 1308.83 2235.2 1296.88C2245.37 1284.93 2258.05 1275.81 2273.23 1269.5C2288.41 1263.21 2304.56 1260.06 2321.69 1260.06C2355.27 1260.06 2380.55 1269.02 2397.51 1286.95C2414.46 1304.87 2422.94 1328.7 2422.94 1358.41V1506.19H2386.61L2384.18 1463.06C2377.4 1476.63 2367.47 1488.18 2354.39 1497.7C2341.3 1507.23 2323.78 1512 2301.82 1512ZM2308.12 1477.6C2323.62 1477.6 2336.95 1473.57 2348.09 1465.49C2359.23 1457.42 2367.71 1446.92 2373.53 1433.99C2379.34 1421.08 2382.25 1407.51 2382.25 1393.3V1392.81H2320.71C2296.81 1392.81 2279.94 1396.93 2270.08 1405.17C2260.23 1413.4 2255.31 1423.66 2255.31 1435.93C2255.31 1448.53 2259.91 1458.63 2269.11 1466.22C2278.32 1473.81 2291.32 1477.6 2308.12 1477.6Z" fill="black"/>
<path d="M2594.45 1512C2571.51 1512 2550.92 1506.74 2532.68 1496.25C2514.42 1485.76 2500.05 1471.06 2489.55 1452.16C2479.05 1433.27 2473.81 1411.22 2473.81 1386.03C2473.81 1360.84 2479.05 1338.79 2489.55 1319.89C2500.05 1301 2514.42 1286.3 2532.68 1275.81C2550.92 1265.31 2571.51 1260.06 2594.45 1260.06C2622.87 1260.06 2646.85 1267.49 2666.4 1282.34C2685.94 1297.21 2698.29 1317.07 2703.46 1341.94H2661.8C2658.56 1327.09 2650.65 1315.53 2638.06 1307.3C2625.46 1299.06 2610.76 1294.94 2593.97 1294.94C2580.4 1294.94 2567.64 1298.34 2555.69 1305.12C2543.74 1311.9 2534.05 1322.08 2526.62 1335.64C2519.19 1349.21 2515.48 1366.01 2515.48 1386.03C2515.48 1406.06 2519.19 1422.85 2526.62 1436.42C2534.05 1449.98 2543.74 1460.24 2555.69 1467.19C2567.64 1474.13 2580.4 1477.6 2593.97 1477.6C2610.76 1477.6 2625.46 1473.48 2638.06 1465.25C2650.65 1457.01 2658.56 1445.31 2661.8 1430.12H2703.46C2698.62 1454.34 2686.34 1474.05 2666.64 1489.23C2646.93 1504.42 2622.87 1512 2594.45 1512Z" fill="black"/>
<path d="M2760.15 1506.19V1157.34H2800.85V1307.05C2808.91 1292.2 2820.38 1280.65 2835.24 1272.41C2850.1 1264.18 2866.26 1260.06 2883.7 1260.06C2911.47 1260.06 2933.76 1268.7 2950.56 1285.98C2967.35 1303.26 2975.75 1329.83 2975.75 1365.68V1506.19H2935.54V1370.04C2935.54 1319.98 2915.34 1294.94 2874.97 1294.94C2853.97 1294.94 2836.37 1302.45 2822.16 1317.47C2807.95 1332.49 2800.85 1353.89 2800.85 1381.67V1506.19H2760.15Z" fill="black"/>
<path d="M3061.99 1212.58C3053.91 1212.58 3047.21 1209.91 3041.89 1204.58C3036.55 1199.25 3033.89 1192.55 3033.89 1184.48C3033.89 1176.72 3036.55 1170.26 3041.89 1165.1C3047.21 1159.93 3053.91 1157.34 3061.99 1157.34C3069.74 1157.34 3076.36 1159.93 3081.86 1165.1C3087.35 1170.26 3090.09 1176.72 3090.09 1184.48C3090.09 1192.55 3087.35 1199.25 3081.86 1204.58C3076.36 1209.91 3069.74 1212.58 3061.99 1212.58ZM3041.64 1506.19V1265.87H3082.34V1506.19H3041.64Z" fill="black"/>
<path d="M3153.08 1506.19V1265.87H3189.9L3192.32 1308.99C3200.07 1293.82 3211.22 1281.86 3225.75 1273.14C3240.29 1264.42 3256.76 1260.06 3275.17 1260.06C3303.59 1260.06 3326.28 1268.7 3343.24 1285.98C3360.2 1303.26 3368.68 1329.83 3368.68 1365.68V1506.19H3327.98V1370.04C3327.98 1319.98 3307.31 1294.94 3265.96 1294.94C3245.29 1294.94 3228.09 1302.45 3214.37 1317.47C3200.63 1332.49 3193.77 1353.89 3193.77 1381.67V1506.19H3153.08Z" fill="black"/>
<path d="M3538.25 1512C3515.32 1512 3494.97 1506.74 3477.21 1496.25C3459.44 1485.76 3445.47 1471.14 3435.3 1452.41C3425.12 1433.68 3420.04 1411.55 3420.04 1386.03C3420.04 1360.84 3425.04 1338.79 3435.06 1319.89C3445.07 1301 3459.04 1286.3 3476.96 1275.81C3494.89 1265.31 3515.64 1260.06 3539.22 1260.06C3562.48 1260.06 3582.59 1265.31 3599.54 1275.81C3616.5 1286.3 3629.5 1300.11 3638.55 1317.23C3647.59 1334.35 3652.11 1352.77 3652.11 1372.46C3652.11 1376.02 3652.03 1379.57 3651.87 1383.12C3651.7 1386.68 3651.63 1390.72 3651.63 1395.24H3460.25C3461.22 1413.64 3465.5 1428.91 3473.09 1441.02C3480.68 1453.13 3490.21 1462.26 3501.67 1468.4C3513.14 1474.54 3525.33 1477.6 3538.25 1477.6C3555.05 1477.6 3569.1 1473.72 3580.41 1465.97C3591.71 1458.22 3599.94 1447.73 3605.12 1434.48H3645.33C3638.86 1456.77 3626.51 1475.26 3608.26 1489.96C3590.01 1504.66 3566.67 1512 3538.25 1512ZM3538.25 1294.46C3518.88 1294.46 3501.67 1300.35 3486.65 1312.14C3471.64 1323.94 3462.99 1341.14 3460.73 1363.74H3611.9C3610.93 1342.11 3603.5 1325.15 3589.61 1312.87C3575.72 1300.6 3558.6 1294.46 3538.25 1294.46Z" fill="black"/>
<path d="M1801.34 564.841V358.925H1765V324.529H1801.34V282.859C1801.34 259.605 1807.15 242.648 1818.78 231.988C1830.41 221.328 1847.36 216 1869.65 216H1893.88V250.883H1875.95C1863.67 250.883 1854.95 253.388 1849.78 258.394C1844.62 263.404 1842.03 271.885 1842.03 283.828V324.529H1901.14V358.925H1842.03V564.841L1801.34 564.841ZM1949.59 564.841V216H1990.29V564.841H1949.59Z" fill="black"/>
<path d="M2166.65 570.655C2144.03 570.655 2123.68 565.484 2105.6 555.15C2087.51 544.816 2073.21 530.199 2062.72 511.304C2052.22 492.409 2046.98 470.205 2046.98 444.683C2046.98 419.173 2052.3 396.961 2062.96 378.066C2073.62 359.171 2088.07 344.558 2106.32 334.216C2124.57 323.885 2145 318.714 2167.62 318.714C2190.22 318.714 2210.57 323.885 2228.66 334.216C2246.75 344.558 2261.04 359.171 2271.54 378.066C2282.04 396.961 2287.29 419.173 2287.29 444.683C2287.29 470.205 2281.96 492.409 2271.3 511.304C2260.64 530.199 2246.18 544.816 2227.94 555.15C2209.68 565.484 2189.25 570.655 2166.65 570.655ZM2166.65 535.772C2180.53 535.772 2193.45 532.379 2205.41 525.595C2217.35 518.812 2227.04 508.638 2234.48 495.071C2241.9 481.508 2245.62 464.716 2245.62 444.683C2245.62 424.662 2241.99 407.862 2234.72 394.295C2227.45 380.732 2217.84 370.554 2205.89 363.771C2193.94 356.991 2181.18 353.597 2167.62 353.597C2153.72 353.597 2140.8 356.991 2128.85 363.771C2116.9 370.554 2107.21 380.732 2099.78 394.295C2092.35 407.862 2088.64 424.662 2088.64 444.683C2088.64 464.716 2092.35 481.508 2099.78 495.071C2107.21 508.638 2116.82 518.812 2128.61 525.595C2140.4 532.379 2153.08 535.772 2166.65 535.772Z" fill="black"/>
<path d="M2343.98 564.841V324.529H2380.8L2384.19 370.554C2391.62 354.735 2402.92 342.137 2418.1 332.764C2433.28 323.399 2452.02 318.714 2474.31 318.714V361.35H2463.16C2448.95 361.35 2435.87 363.855 2423.92 368.861C2411.96 373.871 2402.43 382.348 2395.33 394.295C2388.22 406.249 2384.67 422.724 2384.67 443.714V564.841L2343.98 564.841Z" fill="black"/>
<path d="M2618.69 570.655C2595.74 570.655 2575.4 565.4 2557.64 554.909C2539.87 544.417 2525.9 529.797 2515.73 511.063C2505.55 492.332 2500.47 470.205 2500.47 444.683C2500.47 419.491 2505.47 397.443 2515.49 378.548C2525.49 359.653 2539.47 344.96 2557.39 334.461C2575.32 323.966 2596.07 318.714 2619.65 318.714C2642.91 318.714 2663.02 323.966 2679.97 334.461C2696.93 344.96 2709.93 358.768 2718.98 375.886C2728.01 393.008 2732.54 411.42 2732.54 431.12C2732.54 434.674 2732.46 438.225 2732.3 441.776C2732.13 445.334 2732.06 449.371 2732.06 453.891H2540.68C2541.65 472.3 2545.93 487.564 2553.52 499.675C2561.1 511.787 2570.64 520.918 2582.1 527.051C2593.57 533.191 2605.76 536.255 2618.69 536.255C2635.48 536.255 2649.52 532.379 2660.84 524.626C2672.14 516.873 2680.37 506.382 2685.55 493.133H2725.76C2719.29 515.422 2706.94 533.915 2688.69 548.612C2670.44 563.312 2647.1 570.655 2618.69 570.655ZM2618.69 353.115C2599.31 353.115 2582.1 359.01 2567.08 370.796C2552.07 382.593 2543.42 399.791 2541.16 422.398H2692.33C2691.36 400.76 2683.93 383.803 2670.04 371.523C2656.15 359.251 2639.03 353.115 2618.69 353.115Z" fill="black"/>
<path d="M2786.31 564.841V324.529H2823.13L2825.56 367.647C2833.31 352.471 2844.45 340.517 2858.98 331.795C2873.52 323.073 2889.99 318.714 2908.41 318.714C2936.82 318.714 2959.52 327.36 2976.48 344.634C2993.44 361.917 3001.91 388.48 3001.91 424.336V564.841H2961.22V428.695C2961.22 378.633 2940.54 353.597 2899.2 353.597C2878.53 353.597 2861.32 361.109 2847.6 376.127C2833.87 391.146 2827.01 412.546 2827.01 440.324V564.841L2786.31 564.841Z" fill="black"/>
<path d="M3173.91 570.655C3150.97 570.655 3130.38 565.4 3112.14 554.909C3093.89 544.417 3079.51 529.713 3069.01 510.818C3058.52 491.923 3053.27 469.879 3053.27 444.683C3053.27 419.491 3058.52 397.443 3069.01 378.548C3079.51 359.653 3093.89 344.96 3112.14 334.461C3130.38 323.966 3150.97 318.714 3173.91 318.714C3202.33 318.714 3226.31 326.149 3245.86 340.999C3265.4 355.861 3277.75 375.725 3282.92 400.596H3241.26C3238.02 385.742 3230.12 374.189 3217.52 365.954C3204.92 357.715 3190.22 353.597 3173.43 353.597C3159.86 353.597 3147.1 356.991 3135.15 363.771C3123.2 370.554 3113.51 380.732 3106.08 394.295C3098.65 407.862 3094.94 424.662 3094.94 444.683C3094.94 464.716 3098.65 481.508 3106.08 495.071C3113.51 508.638 3123.2 518.896 3135.15 525.84C3147.1 532.788 3159.86 536.255 3173.43 536.255C3190.22 536.255 3204.92 532.137 3217.52 523.902C3230.12 515.663 3238.02 503.961 3241.26 488.774H3282.92C3278.08 512.997 3265.8 532.704 3246.1 547.884C3226.4 563.071 3202.33 570.655 3173.91 570.655Z" fill="black"/>
<path d="M3447.65 570.655C3424.72 570.655 3404.37 565.4 3386.6 554.909C3368.84 544.417 3354.87 529.797 3344.7 511.063C3334.52 492.332 3329.44 470.205 3329.44 444.683C3329.44 419.491 3334.44 397.443 3344.45 378.548C3354.46 359.653 3368.44 344.96 3386.36 334.461C3404.29 323.966 3425.04 318.714 3448.62 318.714C3471.88 318.714 3491.98 323.966 3508.94 334.461C3525.9 344.96 3538.9 358.768 3547.95 375.886C3556.99 393.008 3561.51 411.42 3561.51 431.12C3561.51 434.674 3561.43 438.225 3561.27 441.776C3561.1 445.334 3561.03 449.371 3561.03 453.891H3369.65C3370.62 472.3 3374.89 487.564 3382.49 499.675C3390.07 511.787 3399.6 520.918 3411.07 527.051C3422.54 533.191 3434.73 536.255 3447.65 536.255C3464.44 536.255 3478.49 532.379 3489.8 524.626C3501.11 516.873 3509.34 506.382 3514.51 493.133H3554.73C3548.26 515.422 3535.91 533.915 3517.66 548.612C3499.41 563.312 3476.07 570.655 3447.65 570.655ZM3447.65 353.115C3428.27 353.115 3411.07 359.01 3396.05 370.796C3381.03 382.593 3372.39 399.791 3370.13 422.398H3521.3C3520.33 400.76 3512.89 383.803 3499.01 371.523C3485.12 359.251 3468 353.115 3447.65 353.115Z" fill="black"/>
</svg>
